<mxfile host="app.diagrams.net" modified="2021-10-23T12:09:43.150Z" agent="5.0 (Windows NT 10.0; Win64; x64) AppleWebKit/537.36 (KHTML, like Gecko) Chrome/95.0.4638.54 Safari/537.36 Edg/95.0.1020.30" etag="z8C-xf3V41CSDXtX-gGq" version="15.5.8" type="github">
  <diagram id="ISVs_MtlPet_DwEQkImN" name="Page-1">
    <mxGraphModel dx="1422" dy="843" grid="1" gridSize="10" guides="1" tooltips="1" connect="1" arrows="1" fold="1" page="1" pageScale="1" pageWidth="827" pageHeight="1169" math="0" shadow="0">
      <root>
        <mxCell id="0" />
        <mxCell id="1" parent="0" />
        <mxCell id="R_riRmV1nYWK8PJ48aJ0-3" value="" style="edgeStyle=orthogonalEdgeStyle;rounded=0;orthogonalLoop=1;jettySize=auto;html=1;" edge="1" parent="1" source="R_riRmV1nYWK8PJ48aJ0-1" target="R_riRmV1nYWK8PJ48aJ0-2">
          <mxGeometry relative="1" as="geometry" />
        </mxCell>
        <mxCell id="R_riRmV1nYWK8PJ48aJ0-1" value="生物" style="rounded=1;whiteSpace=wrap;html=1;" vertex="1" parent="1">
          <mxGeometry x="480" y="400" width="120" height="60" as="geometry" />
        </mxCell>
        <mxCell id="R_riRmV1nYWK8PJ48aJ0-2" value="" style="whiteSpace=wrap;html=1;rounded=1;" vertex="1" parent="1">
          <mxGeometry x="680" y="400" width="120" height="60" as="geometry" />
        </mxCell>
      </root>
    </mxGraphModel>
  </diagram>
</mxfile>
